<svg xmlns="http://www.w3.org/2000/svg" fill-rule="evenodd" stroke-linejoin="round" stroke-miterlimit="2" clip-rule="evenodd" viewBox="0 0 24 24"><g transform="translate(-40 -40)"><rect width="24" height="24" x="40" y="40" fill="none"/><path fill="#2c2c2c" d="M144.49,381.147L151.51,381.147C153.93,381.147 155.9,383.062 155.9,385.361C155.9,386.705 155.226,387.919 154.182,388.694C155.226,389.47 155.9,390.683 155.9,392.028C155.9,394.326 153.93,396.241 151.51,396.241C150.524,396.241 149.613,395.924 148.88,395.392L148.88,398.694C148.88,400.993 146.911,402.908 144.49,402.908C142.07,402.908 140.1,400.993 140.1,398.694C140.1,397.35 140.774,396.137 141.818,395.361C140.774,394.585 140.1,393.372 140.1,392.028C140.1,390.683 140.774,389.47 141.818,388.694C140.774,387.919 140.1,386.705 140.1,385.361C140.1,383.062 142.07,381.147 144.49,381.147ZM147.12,396.241L144.49,396.241C143.06,396.241 141.86,397.336 141.86,398.694C141.86,400.053 143.06,401.147 144.49,401.147C145.921,401.147 147.12,400.053 147.12,398.694L147.12,396.241ZM148.88,392.028C148.88,390.669 150.079,389.574 151.51,389.574C152.94,389.574 154.14,390.669 154.14,392.028C154.14,393.386 152.94,394.481 151.51,394.481C150.079,394.481 148.88,393.386 148.88,392.028ZM144.457,389.575C143.041,389.591 141.86,390.68 141.86,392.028C141.86,393.386 143.06,394.481 144.49,394.481L147.12,394.481L147.12,389.574L144.49,389.574L144.457,389.575ZM147.12,387.814L147.12,382.908L144.49,382.908C143.06,382.908 141.86,384.002 141.86,385.361C141.86,386.72 143.06,387.814 144.49,387.814L147.12,387.814ZM148.88,387.814L151.51,387.814C152.94,387.814 154.14,386.72 154.14,385.361C154.14,384.002 152.94,382.908 151.51,382.908L148.88,382.908L148.88,387.814Z" transform="translate(-96 -340)"/></g></svg>